<svg xmlns="http://www.w3.org/2000/svg" viewBox="0 0 1920 1080" width="1920" height="1080">
  <defs>
    <linearGradient id="sky" x1="0" y1="0" x2="0" y2="1">
      <stop offset="0" stop-color="#a5dcff"/><stop offset="1" stop-color="#eefaf0"/>
    </linearGradient>
    <linearGradient id="grass" x1="0" y1="0" x2="0" y2="1">
      <stop offset="0" stop-color="#96d468"/><stop offset="1" stop-color="#5fb548"/>
    </linearGradient>
  </defs>
  <rect width="1920" height="1080" fill="url(#sky)"/>
  <circle cx="300" cy="170" r="80" fill="#ffe27a"/>
  <ellipse cx="1200" cy="220" rx="160" ry="55" fill="#ffffff" opacity="0.85"/>
  <ellipse cx="960" cy="1030" rx="1400" ry="400" fill="url(#grass)"/>
  <rect x="1180" y="200" width="90" height="620" rx="24" fill="#7a5230"/>
  <circle cx="1225" cy="200" r="230" fill="#4f9e45"/>
  <circle cx="1060" cy="290" r="130" fill="#5cae51"/>
  <circle cx="1400" cy="290" r="130" fill="#5cae51"/>
  <rect x="1080" y="300" width="300" height="200" rx="18" fill="#c98d4b"/>
  <polygon points="1060,310 1230,190 1400,310" fill="#a8683a"/>
  <rect x="1190" y="380" width="80" height="90" rx="10" fill="#6d4527"/>
  <rect x="1105" y="330" width="60" height="55" rx="8" fill="#ffe9c9"/>
  <rect x="1300" y="330" width="60" height="55" rx="8" fill="#ffe9c9"/>
  <g stroke="#8a6a4a" stroke-width="12">
    <line x1="1180" y1="500" x2="1120" y2="900"/>
    <line x1="1280" y1="500" x2="1330" y2="900"/>
    <line x1="1160" y1="580" x2="1295" y2="580"/>
    <line x1="1150" y1="660" x2="1305" y2="660"/>
    <line x1="1140" y1="740" x2="1315" y2="740"/>
    <line x1="1130" y1="820" x2="1325" y2="820"/>
  </g>
  <path d="M 100 1000 Q 700 900 1200 940" stroke="#e8d5a8" stroke-width="60" fill="none" stroke-linecap="round" opacity="0.7"/>
  <circle cx="520" cy="960" r="11" fill="#ff9ecb"/>
  <circle cx="820" cy="995" r="9" fill="#ffd66b"/>
</svg>
